<?xml version="1.0" encoding="utf-8"?>
<!-- Generator: Adobe Illustrator 15.0.2, SVG Export Plug-In . SVG Version: 6.00 Build 0)  -->
<!DOCTYPE svg PUBLIC "-//W3C//DTD SVG 1.1//EN" "http://www.w3.org/Graphics/SVG/1.1/DTD/svg11.dtd">
<svg version="1.1" id="Layer_1" xmlns="http://www.w3.org/2000/svg" xmlns:xlink="http://www.w3.org/1999/xlink" x="0px" y="0px"
	 width="200px" height="271px" viewBox="0 0 200 271" enable-background="new 0 0 200 271" xml:space="preserve">
<g id="Layer_2">
</g>
<g id="type">
	<path d="M160,246.51v-51.391c5-2.792,8.479-8.161,11.738-11.414c0,0-6.738-3.783-11.738-9.344V129.8
		c5,1.941,5.988,3.546,7.107,4.032c3.399,1.515,7.897,4.167,13.588,0c5.688-4.151,12.098-7.545,19.302-13.977l-1.147-2.269
		c0,0-6.068,1.518-11.759,0.765c-5.673-0.765-9.479-3.405-24.256-12.474l-18.469,8.636c-0.113-26.569,0.853-85.306,1.991-96.24
		c1.422-13.598,12.221-14.451,15.908-15.014c0,0-0.85-1.991-1.703-3.122c-5.111,0.287-36.095,17.003-40.926,20.122
		c0,0-1.988,5.669-1.709,14.168c0.071,2.1,0.276,16.118,0.266,32.744c-6,5.695-18.193,2.143-23.193-1.055
		c0-20.018,0-37.995,0-39.333c0-2.071,1.231-3.973,3.506-5.107L92.728,0.704l-4.336,21.26c0,0,0.608,3.39,4.608,5.093
		c0,0,0,17.852,0,38.824c-4,1.863-10.987,6.389-16.092,9.691c0.694-10.002,0.29-21.075-0.614-32.365
		C73.74,11.475,56.464,3.26,53.911,1.27c-2.56-1.977-7.504-2.255-15.738,3.687C29.928,10.909,7.985,31.026,1.731,42.929
		c0,0,0.541,3.114,1.674,5.095c0,0,3.116,0.287,4.257-0.283c0,0,1.127-23.514,16.759-23.229
		c15.632,0.282,27.571,19.829,27.571,49.305c0,26.752-3.753,42.966-7.421,53.159c-3.32-1.395-6-2.483-7.371-3.013
		c-5.966-2.269-13.354,2.272-16.485,4.542c-3.126,2.269-16.482,21.25-20.46,28.336c0,0-0.574,1.396,0,2.829
		c0.564,1.428,3.124,0.841,5.118,0.281c0,0-1.14-4.262,5.111-10.196c6.257-5.97,17.629-5.97,22.459-4.258
		c4.475,1.579,30.767,13.158,40.264,18.017c-3.918,19.938-7.025,46.656,7.866,76.344c3.196,6.371,7.497,11.373,12.5,15.26
		c-19.186,16.062-36.626,5.154-39.138,3.015l-2.645,0.371c5.689,16.626,13.263,12.089,21.99,9.453
		c8.496-2.587,15.958-6.312,22.549-10.888c28.036,18.621,74.716,6.812,84.034,4.324c0,0,12.13-30.979,15.15-41.175l-3.296-0.772
		C191.604,236.562,178,244.113,160,246.51z M90.929,131.051c-0.571,10.749-10.234,10.469-13.927,9.354
		c-2.673-0.816-19.129-7.867-30.32-12.556c6.009-3.85,18.507-11.928,20.647-14.074c3.708-5.036,6.903-17.742,8.362-33.824
		c4.78,1.342,11.88,4.028,15.57,5.884C91.237,106.971,91.162,126.703,90.929,131.051z M114.221,128.771l-0.857-1.236l-18.568,8.886
		C94.802,134.275,95,128.249,95,122.54c0,0,0-17.277,0-37.16c5-2.919,17.477-10.527,23.191-14.184
		c-0.01,21.9,1.957,54.711,1.957,54.711c0.059,0.362,1.767,82.081-9.889,106.591C83.439,203.098,101.335,139.467,114.221,128.771z
		 M158,174.027c-5,2.533-7.688,8.305-12.889,12.326c2.088,0.69,7.889,5.775,12.889,9.543v51.017c-5,0.335-7.598,0.497-9.982,0.497
		c-14.41,0-26.322-3.605-34.315-9.6c30.889-41.408,30.207-106.938,30.207-117.188c0,0,7.091,3.984,14.091,7.602V174.027z"/>
</g>
</svg>
